<svg version="1.1" id="Layer_1" xmlns="http://www.w3.org/2000/svg" xmlns:xlink="http://www.w3.org/1999/xlink" x="0px" y="0px"
	 width="100%" viewBox="0 0 2000 1850" enable-background="new 0 0 2000 1850" xml:space="preserve">
<path fill="#287352" opacity="1.000000" stroke="none" 
	d="
M0.999971,1722.000000 
	C1.000000,1708.645752 1.000000,1695.291504 1.383090,1681.500732 
	C2.109359,1680.723511 2.670553,1680.434204 2.764474,1680.035034 
	C7.555375,1659.672485 19.323471,1644.290039 36.484219,1632.771118 
	C48.684471,1624.581665 61.098125,1616.697876 73.101959,1608.231567 
	C86.179512,1599.008057 99.233124,1589.687744 111.649399,1579.611450 
	C120.231033,1572.646973 128.446136,1564.941895 135.531601,1556.484131 
	C149.507675,1539.801392 158.659851,1520.228638 165.058151,1499.586914 
	C173.022232,1473.893555 180.071060,1447.915771 187.460663,1422.045288 
	C196.661575,1389.833496 205.846863,1357.617188 214.966080,1325.382202 
	C225.837540,1286.953491 236.596817,1248.492920 247.470154,1210.064697 
	C256.587891,1177.841309 265.841370,1145.656494 274.959412,1113.433228 
	C286.504517,1072.632446 297.951447,1031.803833 309.481842,990.999023 
	C318.634521,958.608826 327.869049,926.241638 337.030731,893.853943 
	C346.554443,860.186462 355.992584,826.494751 365.546753,792.835938 
	C372.937561,766.798462 380.513275,740.813477 387.893433,714.773010 
	C399.498749,673.824585 410.971985,632.838745 422.570374,591.888367 
	C432.284729,557.589905 442.139191,523.331116 451.856262,489.033386 
	C461.753082,454.101196 471.343842,419.080780 481.472839,384.216400 
	C489.118988,357.898041 495.326752,331.441315 494.004242,303.763214 
	C493.287781,288.768158 491.005341,273.985687 483.759735,260.725952 
	C472.829254,240.722610 461.317444,221.025497 449.629517,201.450912 
	C439.314606,184.175827 436.264465,166.482025 440.770874,146.437759 
	C447.864166,114.887123 467.740356,96.525818 497.215942,87.153419 
	C525.238220,78.243134 554.453918,76.249504 583.494873,76.210121 
	C846.483887,75.853477 1109.473633,75.914177 1372.463135,76.088120 
	C1413.538330,76.115288 1454.621094,77.025299 1495.683960,78.134949 
	C1513.524536,78.617058 1531.373779,80.171028 1549.127808,82.085373 
	C1568.639526,84.189247 1588.084229,87.018211 1607.489502,89.980431 
	C1637.379761,94.543137 1666.690430,101.727470 1695.521606,110.794685 
	C1729.522705,121.487877 1762.310913,135.048950 1793.624878,152.199234 
	C1829.277710,171.725967 1861.596191,195.753647 1890.427368,224.272919 
	C1902.519043,236.233734 1913.252563,249.614319 1924.140869,262.733490 
	C1939.311646,281.012451 1951.416748,301.360718 1962.082520,322.500397 
	C1972.670898,343.486389 1981.553589,365.280273 1986.964600,388.180237 
	C1991.698486,408.214722 1995.027466,428.580414 1999.066650,448.781860 
	C1999.297485,449.937225 2000.336914,450.931030 2001.000000,452.000000 
	C2001.000000,488.020905 2001.000000,524.041809 2000.585327,560.541565 
	C1999.427368,565.980164 1998.828979,570.966736 1997.916260,575.895020 
	C1993.535889,599.548218 1990.014038,623.411133 1984.431274,646.780029 
	C1974.086548,690.081299 1959.339355,732.001160 1941.107666,772.638977 
	C1928.294067,801.200500 1913.337402,828.661438 1896.394897,854.958252 
	C1877.921631,883.631287 1857.109375,910.623108 1833.784790,935.517883 
	C1814.269653,956.346924 1793.816650,976.343628 1770.877197,993.426025 
	C1750.758423,1008.407898 1730.526611,1023.396301 1709.259644,1036.639160 
	C1681.439575,1053.962524 1652.191650,1068.841431 1622.111816,1082.030762 
	C1583.314453,1099.042480 1543.600220,1113.455933 1502.716309,1124.490845 
	C1481.548950,1130.203979 1460.225586,1135.480469 1438.753540,1139.885620 
	C1415.675659,1144.620239 1392.396362,1148.465332 1369.101685,1152.022949 
	C1348.562744,1155.159668 1327.916260,1157.693970 1307.252319,1159.880493 
	C1289.991333,1161.706909 1272.652710,1162.946045 1255.318481,1163.894043 
	C1236.429321,1164.927124 1217.506592,1165.868774 1198.596558,1165.907959 
	C1102.769531,1166.106689 1006.941833,1165.998901 911.114319,1165.998901 
	C902.933289,1165.998901 903.126953,1166.053955 900.975159,1173.854248 
	C893.646423,1200.421753 886.183716,1226.952271 878.743469,1253.489014 
	C871.839294,1278.113770 864.892395,1302.726685 857.975647,1327.347900 
	C850.612793,1353.557251 843.283813,1379.776001 835.901917,1405.979858 
	C828.965698,1430.601685 821.688904,1455.132324 815.123779,1479.852173 
	C811.154724,1494.796875 810.783386,1510.173828 811.956909,1525.599487 
	C812.829224,1537.066528 815.123962,1548.105835 819.855286,1558.647217 
	C826.612488,1573.702759 837.323975,1585.925415 848.414551,1597.692261 
	C859.583252,1609.542114 871.740601,1620.455811 883.359436,1631.886719 
	C893.406006,1641.770996 903.437134,1651.678467 913.191223,1661.847900 
	C916.237549,1665.024048 918.774109,1668.869019 920.828857,1672.783203 
	C927.572693,1685.629517 927.106445,1699.306641 924.439941,1713.018311 
	C922.133484,1724.879028 916.466309,1735.261475 907.759888,1743.466919 
	C895.812195,1754.727173 880.827209,1760.635498 865.250000,1764.945312 
	C834.714539,1773.393311 803.315002,1775.784668 771.908325,1775.833130 
	C564.254822,1776.153564 356.600525,1776.049561 148.946609,1775.914673 
	C130.706894,1775.902832 112.445686,1775.040894 94.234589,1773.921265 
	C73.746719,1772.661865 54.085938,1767.781616 35.885326,1757.942261 
	C21.578379,1750.207886 9.509912,1740.283936 3.599946,1724.405273 
	C3.232401,1723.417725 1.889224,1722.793335 0.999971,1722.000000 
M1031.487671,712.026611 
	C1030.506104,715.694214 1029.593506,719.381958 1028.532349,723.026428 
	C1019.447998,754.227112 1010.270264,785.400696 1001.251526,816.620300 
	C991.589111,850.067871 982.055420,883.552795 972.499207,917.030945 
	C970.759766,923.124512 969.181763,929.264099 967.543457,935.330017 
	C968.616760,935.688660 968.928345,935.885376 969.238708,935.883301 
	C1010.349670,935.606812 1051.469238,935.710999 1092.566772,934.811707 
	C1107.022461,934.495422 1121.582764,932.566895 1135.822021,929.909607 
	C1184.125000,920.895142 1225.032104,898.222412 1258.518311,862.081848 
	C1270.269287,849.399475 1280.338867,835.605286 1289.601562,821.057678 
	C1307.101440,793.573120 1321.284180,764.413818 1332.899780,734.098694 
	C1343.346558,706.833740 1352.993164,679.220703 1361.828247,651.391663 
	C1370.011108,625.616577 1377.358643,599.523621 1383.742432,573.247131 
	C1388.597900,553.261108 1391.645508,532.813477 1394.954346,512.482849 
	C1396.860352,500.771210 1398.131592,488.911438 1398.865234,477.067352 
	C1399.507568,466.699921 1398.958130,456.261047 1399.009033,445.854095 
	C1399.116577,423.833710 1395.789429,402.414825 1388.036377,381.737793 
	C1378.113525,355.273102 1361.448242,334.776337 1335.864380,321.913177 
	C1315.956177,311.903564 1294.657349,307.473145 1272.688843,307.152344 
	C1234.871826,306.600159 1197.040894,307.000519 1159.215820,307.001038 
	C1148.389648,307.001190 1148.390869,307.001495 1145.119995,316.951569 
	C1144.500244,318.837036 1143.792847,320.696991 1143.250122,322.604065 
	C1132.051270,361.951569 1120.963379,401.330963 1109.660645,440.648621 
	C1097.308960,483.614563 1084.677124,526.499878 1072.322998,569.465149 
	C1058.737061,616.713867 1045.328613,664.013550 1031.487671,712.026611 
z"/>
<path fill="#000000" opacity="1.000000" stroke="none" 
	d="
M0.999971,1722.468750 
	C1.889224,1722.793335 3.232401,1723.417725 3.599946,1724.405273 
	C9.509912,1740.283936 21.578379,1750.207886 35.885326,1757.942261 
	C54.085938,1767.781616 73.746719,1772.661865 94.234589,1773.921265 
	C112.445686,1775.040894 130.706894,1775.902832 148.946609,1775.914673 
	C356.600525,1776.049561 564.254822,1776.153564 771.908325,1775.833130 
	C803.315002,1775.784668 834.714539,1773.393311 865.250000,1764.945312 
	C880.827209,1760.635498 895.812195,1754.727173 907.759888,1743.466919 
	C916.466309,1735.261475 922.133484,1724.879028 924.439941,1713.018311 
	C927.106445,1699.306641 927.572693,1685.629517 920.828857,1672.783203 
	C918.774109,1668.869019 916.237549,1665.024048 913.191223,1661.847900 
	C903.437134,1651.678467 893.406006,1641.770996 883.359436,1631.886719 
	C871.740601,1620.455811 859.583252,1609.542114 848.414551,1597.692261 
	C837.323975,1585.925415 826.612488,1573.702759 819.855286,1558.647217 
	C815.123962,1548.105835 812.829224,1537.066528 811.956909,1525.599487 
	C810.783386,1510.173828 811.154724,1494.796875 815.123779,1479.852173 
	C821.688904,1455.132324 828.965698,1430.601685 835.901917,1405.979858 
	C843.283813,1379.776001 850.612793,1353.557251 857.975647,1327.347900 
	C864.892395,1302.726685 871.839294,1278.113770 878.743469,1253.489014 
	C886.183716,1226.952271 893.646423,1200.421753 900.975159,1173.854248 
	C903.126953,1166.053955 902.933289,1165.998901 911.114319,1165.998901 
	C1006.941833,1165.998901 1102.769531,1166.106689 1198.596558,1165.907959 
	C1217.506592,1165.868774 1236.429321,1164.927124 1255.318481,1163.894043 
	C1272.652710,1162.946045 1289.991333,1161.706909 1307.252319,1159.880493 
	C1327.916260,1157.693970 1348.562744,1155.159668 1369.101685,1152.022949 
	C1392.396362,1148.465332 1415.675659,1144.620239 1438.753540,1139.885620 
	C1460.225586,1135.480469 1481.548950,1130.203979 1502.716309,1124.490845 
	C1543.600220,1113.455933 1583.314453,1099.042480 1622.111816,1082.030762 
	C1652.191650,1068.841431 1681.439575,1053.962524 1709.259644,1036.639160 
	C1730.526611,1023.396301 1750.758423,1008.407898 1770.877197,993.426025 
	C1793.816650,976.343628 1814.269653,956.346924 1833.784790,935.517883 
	C1857.109375,910.623108 1877.921631,883.631287 1896.394897,854.958252 
	C1913.337402,828.661438 1928.294067,801.200500 1941.107666,772.638977 
	C1959.339355,732.001160 1974.086548,690.081299 1984.431274,646.780029 
	C1990.014038,623.411133 1993.535889,599.548218 1997.916260,575.895020 
	C1998.828979,570.966736 1999.427368,565.980164 2000.585327,561.010254 
	C2001.000000,990.945007 2001.000000,1420.890015 2001.000000,1850.917480 
	C1334.333374,1850.917480 667.666687,1850.917480 1.000002,1850.919067 
	C1.000000,1808.259521 1.000000,1765.598389 0.999971,1722.468750 
z"/>
<path fill="#000000" opacity="1.000000" stroke="none" 
	d="
M2001.000000,451.531342 
	C2000.336914,450.931030 1999.297485,449.937225 1999.066650,448.781860 
	C1995.027466,428.580414 1991.698486,408.214722 1986.964600,388.180237 
	C1981.553589,365.280273 1972.670898,343.486389 1962.082520,322.500397 
	C1951.416748,301.360718 1939.311646,281.012451 1924.140869,262.733490 
	C1913.252563,249.614319 1902.519043,236.233734 1890.427368,224.272919 
	C1861.596191,195.753647 1829.277710,171.725967 1793.624878,152.199234 
	C1762.310913,135.048950 1729.522705,121.487877 1695.521606,110.794685 
	C1666.690430,101.727470 1637.379761,94.543137 1607.489502,89.980431 
	C1588.084229,87.018211 1568.639526,84.189247 1549.127808,82.085373 
	C1531.373779,80.171028 1513.524536,78.617058 1495.683960,78.134949 
	C1454.621094,77.025299 1413.538330,76.115288 1372.463135,76.088120 
	C1109.473633,75.914177 846.483887,75.853477 583.494873,76.210121 
	C554.453918,76.249504 525.238220,78.243134 497.215942,87.153419 
	C467.740356,96.525818 447.864166,114.887123 440.770874,146.437759 
	C436.264465,166.482025 439.314606,184.175827 449.629517,201.450912 
	C461.317444,221.025497 472.829254,240.722610 483.759735,260.725952 
	C491.005341,273.985687 493.287781,288.768158 494.004242,303.763214 
	C495.326752,331.441315 489.118988,357.898041 481.472839,384.216400 
	C471.343842,419.080780 461.753082,454.101196 451.856262,489.033386 
	C442.139191,523.331116 432.284729,557.589905 422.570374,591.888367 
	C410.971985,632.838745 399.498749,673.824585 387.893433,714.773010 
	C380.513275,740.813477 372.937561,766.798462 365.546753,792.835938 
	C355.992584,826.494751 346.554443,860.186462 337.030731,893.853943 
	C327.869049,926.241638 318.634521,958.608826 309.481842,990.999023 
	C297.951447,1031.803833 286.504517,1072.632446 274.959412,1113.433228 
	C265.841370,1145.656494 256.587891,1177.841309 247.470154,1210.064697 
	C236.596817,1248.492920 225.837540,1286.953491 214.966080,1325.382202 
	C205.846863,1357.617188 196.661575,1389.833496 187.460663,1422.045288 
	C180.071060,1447.915771 173.022232,1473.893555 165.058151,1499.586914 
	C158.659851,1520.228638 149.507675,1539.801392 135.531601,1556.484131 
	C128.446136,1564.941895 120.231033,1572.646973 111.649399,1579.611450 
	C99.233124,1589.687744 86.179512,1599.008057 73.101959,1608.231567 
	C61.098125,1616.697876 48.684471,1624.581665 36.484219,1632.771118 
	C19.323471,1644.290039 7.555375,1659.672485 2.764474,1680.035034 
	C2.670553,1680.434204 2.109359,1680.723511 1.383090,1681.031982 
	C1.000000,1121.059326 1.000000,561.118652 1.000000,1.088971 
	C667.666687,1.088971 1334.333374,1.088971 2001.000000,1.088971 
	C2001.000000,151.094345 2001.000000,301.078522 2001.000000,451.531342 
z"/>
<path fill="#000000" opacity="1.000000" stroke="none" 
	d="
M1031.665283,711.658813 
	C1045.328613,664.013550 1058.737061,616.713867 1072.322998,569.465149 
	C1084.677124,526.499878 1097.308960,483.614563 1109.660645,440.648621 
	C1120.963379,401.330963 1132.051270,361.951569 1143.250122,322.604065 
	C1143.792847,320.696991 1144.500244,318.837036 1145.119995,316.951569 
	C1148.390869,307.001495 1148.389648,307.001190 1159.215820,307.001038 
	C1197.040894,307.000519 1234.871826,306.600159 1272.688843,307.152344 
	C1294.657349,307.473145 1315.956177,311.903564 1335.864380,321.913177 
	C1361.448242,334.776337 1378.113525,355.273102 1388.036377,381.737793 
	C1395.789429,402.414825 1399.116577,423.833710 1399.009033,445.854095 
	C1398.958130,456.261047 1399.507568,466.699921 1398.865234,477.067352 
	C1398.131592,488.911438 1396.860352,500.771210 1394.954346,512.482849 
	C1391.645508,532.813477 1388.597900,553.261108 1383.742432,573.247131 
	C1377.358643,599.523621 1370.011108,625.616577 1361.828247,651.391663 
	C1352.993164,679.220703 1343.346558,706.833740 1332.899780,734.098694 
	C1321.284180,764.413818 1307.101440,793.573120 1289.601562,821.057678 
	C1280.338867,835.605286 1270.269287,849.399475 1258.518311,862.081848 
	C1225.032104,898.222412 1184.125000,920.895142 1135.822021,929.909607 
	C1121.582764,932.566895 1107.022461,934.495422 1092.566772,934.811707 
	C1051.469238,935.710999 1010.349670,935.606812 969.238708,935.883301 
	C968.928345,935.885376 968.616760,935.688660 967.543457,935.330017 
	C969.181763,929.264099 970.759766,923.124512 972.499207,917.030945 
	C982.055420,883.552795 991.589111,850.067871 1001.251526,816.620300 
	C1010.270264,785.400696 1019.447998,754.227112 1028.532349,723.026428 
	C1029.593506,719.381958 1030.506104,715.694214 1031.665283,711.658813 
z"/>
</svg>